<?xml version="1.0" standalone="no"?>
<!DOCTYPE svg PUBLIC "-//W3C//DTD SVG 20010904//EN"
 "http://www.w3.org/TR/2001/REC-SVG-20010904/DTD/svg10.dtd">
<svg version="1.0" xmlns="http://www.w3.org/2000/svg"
 width="284.000000pt" height="284.000000pt" viewBox="0 0 284.000000 284.000000"
 preserveAspectRatio="xMidYMid meet">
<metadata>
Created by potrace 1.14, written by Peter Selinger 2001-2017
</metadata>
<g transform="translate(0.000000,284.000000) scale(0.100000,-0.100000)"
fill="#000000" stroke="none">
<path d="M1659 2803 c-38 -20 -63 -42 -85 -75 -34 -50 -40 -78 -50 -233 -3
-55 -8 -102 -10 -104 -2 -2 -23 1 -46 8 -75 23 -185 23 -266 1 -72 -20 -163
-60 -192 -85 -8 -7 -66 -39 -127 -70 -62 -32 -113 -63 -113 -70 0 -14 93 -95
109 -95 6 0 11 -4 11 -8 0 -20 171 -129 295 -187 94 -45 157 -63 240 -68 46
-3 50 -6 49 -28 -2 -31 -13 -203 -19 -294 -3 -38 -7 -90 -9 -115 -3 -25 -5
-57 -5 -72 -1 -22 -5 -26 -23 -23 -234 40 -250 42 -364 51 -97 8 -141 -8 -176
-65 -20 -31 -23 -50 -23 -128 l0 -92 -30 -7 c-43 -10 -92 -45 -111 -80 -17
-31 -17 -31 -63 -20 -63 16 -117 10 -167 -19 -72 -42 -95 -123 -89 -310 5
-157 24 -228 100 -364 35 -64 76 -146 90 -183 27 -68 27 -68 66 -68 21 0 39 1
39 3 0 20 -79 191 -144 309 -69 127 -81 180 -79 361 1 129 20 181 70 198 41
13 110 7 128 -13 7 -7 16 -36 19 -63 6 -54 39 -162 64 -210 8 -16 16 -55 18
-85 2 -55 20 -233 30 -300 10 -69 96 -141 189 -156 38 -6 160 -7 215 -2 19 2
26 -2 28 -19 3 -19 10 -23 39 -23 l35 0 -6 60 c-3 34 -1 71 5 87 16 42 13 135
-5 172 -35 67 -107 111 -180 111 -56 0 -40 -63 19 -74 19 -4 51 -21 70 -38 31
-26 35 -36 35 -78 0 -50 -17 -111 -34 -122 -5 -4 -60 -6 -121 -4 -91 1 -117 6
-152 24 -61 32 -66 44 -78 182 -4 47 -9 94 -11 105 -9 45 -6 105 5 132 21 52
49 61 236 78 33 3 76 8 95 10 19 3 64 7 100 10 36 3 72 8 82 11 25 7 30 32 9
53 -15 15 -27 17 -86 10 -37 -5 -72 -6 -76 -3 -5 3 -9 2 -9 -3 0 -4 -19 -8
-43 -9 -46 -1 -172 -12 -227 -20 -19 -3 -55 -17 -79 -31 -50 -29 -52 -28 -77
57 -23 76 -23 170 0 205 16 24 73 58 86 50 3 -2 26 -6 50 -10 25 -3 52 -8 60
-10 16 -5 50 -10 115 -20 39 -5 56 -8 115 -20 14 -2 45 -7 70 -10 25 -4 61
-10 80 -14 19 -4 51 -7 70 -7 29 1 36 5 38 25 4 29 -5 38 -43 45 -16 3 -129
21 -250 42 -121 20 -224 40 -229 45 -5 4 -10 47 -10 94 -1 83 0 88 27 111 25
22 35 23 100 19 40 -3 112 -12 160 -20 48 -8 104 -18 125 -21 65 -9 431 -83
495 -100 77 -19 131 -50 179 -102 47 -51 64 -104 72 -224 4 -53 9 -105 11
-115 1 -11 6 -59 10 -109 4 -49 8 -100 10 -114 2 -14 7 -61 10 -105 3 -44 8
-96 10 -115 2 -19 7 -66 11 -105 7 -73 11 -115 13 -127 1 -5 17 -8 37 -8 l36
0 -6 68 c-4 37 -9 90 -12 117 -2 28 -6 70 -9 95 -6 63 -14 149 -20 223 -3 34
-8 78 -10 97 -6 51 -18 179 -20 225 -5 106 -38 197 -91 250 -29 29 -30 33 -39
170 -5 84 -10 152 -20 300 -13 181 -15 254 -8 258 4 3 33 8 63 12 217 26 544
188 670 331 29 34 30 37 13 48 -10 7 -54 25 -98 40 -69 24 -191 75 -355 149
-71 31 -174 40 -290 24 l-55 -8 -1 38 c-3 138 -17 252 -36 296 -41 94 -143
123 -249 70z m163 -70 c25 -22 36 -70 43 -188 4 -55 8 -120 10 -145 2 -25 7
-97 10 -160 4 -63 8 -131 10 -150 2 -19 6 -82 10 -140 4 -58 8 -125 10 -150 2
-25 6 -88 10 -140 3 -52 8 -120 10 -150 2 -30 7 -102 11 -160 3 -58 8 -122 9
-143 2 -35 0 -38 -19 -33 -73 18 -246 57 -329 72 l-97 19 4 60 c3 33 8 98 11
145 4 47 8 110 10 140 3 30 7 87 9 125 5 65 10 141 21 290 2 33 7 98 10 145 3
47 8 110 10 140 2 30 7 93 10 140 12 182 16 204 42 243 14 20 26 37 27 37 0 0
19 7 41 15 45 17 90 12 117 -12z m-368 -384 c37 -12 63 -26 60 -33 -3 -10 -11
-103 -13 -163 -1 -15 -6 -21 -18 -19 -10 2 -61 7 -113 10 -52 4 -115 9 -140
11 -112 11 -150 15 -215 21 -75 7 -106 11 -111 17 -6 5 232 137 268 148 18 6
47 13 63 16 17 3 32 7 34 9 13 12 129 1 185 -17z m751 10 c22 -6 56 -17 75
-26 19 -9 84 -38 145 -64 60 -26 111 -53 113 -59 8 -22 -8 -59 -26 -58 -9 0
-78 -3 -152 -7 -74 -4 -193 -8 -263 -9 -148 -1 -133 -14 -142 125 l-6 87 48 9
c68 12 161 13 208 2z m-1185 -233 c30 -3 84 -8 120 -11 36 -4 79 -8 95 -10 17
-2 80 -6 140 -10 61 -4 113 -9 116 -11 4 -2 5 -18 3 -36 -2 -18 -5 -64 -8
-101 -2 -38 -7 -71 -10 -74 -2 -3 -29 -5 -58 -4 -60 0 -154 29 -243 73 -74 37
-244 150 -271 179 l-19 21 40 -5 c22 -3 65 -8 95 -11z m1491 -59 c7 -26 4 -29
-64 -67 -121 -67 -287 -124 -424 -143 -39 -6 -40 -5 -48 128 l-6 101 187 2
c104 2 189 4 190 5 2 1 38 2 80 2 76 0 78 -1 85 -28z"/>
</g>
</svg>
